<svg width="34" height="35" viewBox="0 0 34 35" fill="none" xmlns="http://www.w3.org/2000/svg">
<path d="M22.4439 17.3806C22.4439 18.773 21.8904 20.1083 20.9051 21.0929C19.9199 22.0774 18.5836 22.6306 17.1902 22.6306C15.7969 22.6306 14.4606 22.0774 13.4754 21.0929C12.4901 20.1083 11.9366 18.773 11.9366 17.3806C11.9366 17.0813 11.9681 16.7891 12.0224 16.5056H10.1854V23.5003C10.1854 23.9868 10.5794 24.3806 11.0662 24.3806H23.316C23.5493 24.3801 23.7729 24.2872 23.9377 24.1221C24.1025 23.9571 24.1951 23.7335 24.1951 23.5003V16.5056H22.3581C22.4124 16.7891 22.4439 17.0813 22.4439 17.3806ZM17.1902 20.8806C17.6503 20.8805 18.1058 20.7898 18.5308 20.6137C18.9558 20.4377 19.342 20.1797 19.6672 19.8546C19.9924 19.5294 20.2504 19.1434 20.4263 18.7186C20.6023 18.2938 20.6928 17.8386 20.6927 17.3788C20.6926 16.9191 20.6018 16.4639 20.4257 16.0392C20.2495 15.6145 19.9914 15.2286 19.666 14.9036C19.3406 14.5786 18.9543 14.3208 18.5292 14.145C18.1041 13.9691 17.6486 13.8787 17.1885 13.8788C16.2594 13.8791 15.3684 14.2481 14.7115 14.9048C14.0547 15.5615 13.6858 16.4521 13.6861 17.3806C13.6863 18.3091 14.0556 19.1994 14.7128 19.8558C15.3699 20.5122 16.2611 20.8808 17.1902 20.8806ZM21.3932 13.7056H23.4929C23.6324 13.7056 23.7662 13.6503 23.865 13.5519C23.9638 13.4535 24.0195 13.32 24.02 13.1806V11.0823C24.02 10.9426 23.9644 10.8086 23.8656 10.7098C23.7667 10.6111 23.6327 10.5556 23.4929 10.5556H21.3932C21.2534 10.5556 21.1193 10.6111 21.0204 10.7098C20.9216 10.8086 20.866 10.9426 20.866 11.0823V13.1806C20.8678 13.4693 21.1042 13.7056 21.3932 13.7056ZM17.1902 0.580566C12.7315 0.580566 8.45539 2.35056 5.30259 5.50117C2.14979 8.65178 0.378571 12.9249 0.378571 17.3806C0.378571 21.8362 2.14979 26.1094 5.30259 29.26C8.45539 32.4106 12.7315 34.1806 17.1902 34.1806C19.398 34.1806 21.5841 33.746 23.6238 32.9017C25.6635 32.0575 27.5168 30.82 29.0779 29.26C30.639 27.6999 31.8773 25.8479 32.7222 23.8097C33.5671 21.7714 34.0019 19.5868 34.0019 17.3806C34.0019 15.1744 33.5671 12.9898 32.7222 10.9515C31.8773 8.91322 30.639 7.0612 29.0779 5.50117C27.5168 3.94115 25.6635 2.70367 23.6238 1.85939C21.5841 1.01511 19.398 0.580566 17.1902 0.580566ZM25.9463 24.1863C25.9463 25.2556 25.0707 26.1306 24.0007 26.1306H10.3798C9.30977 26.1306 8.43416 25.2556 8.43416 24.1863V10.5748C8.43416 9.50557 9.30977 8.63057 10.3798 8.63057H24.0007C25.0707 8.63057 25.9463 9.50557 25.9463 10.5748V24.1863Z" fill="white"/>
</svg>
