<svg width="25" height="25" viewBox="0 0 25 25" fill="none" xmlns="http://www.w3.org/2000/svg">
<path d="M10.557 17.2796C10.4257 17.2798 10.2956 17.2542 10.1742 17.2041C10.0528 17.154 9.94244 17.0804 9.84956 16.9876L5.60461 12.7446C5.50897 12.6524 5.43266 12.5421 5.38013 12.4201C5.3276 12.2982 5.29991 12.167 5.29866 12.0342C5.29741 11.9014 5.32264 11.7697 5.37287 11.6468C5.4231 11.5238 5.49732 11.4121 5.59121 11.3182C5.6851 11.2242 5.79678 11.1499 5.91972 11.0995C6.04267 11.0492 6.17442 11.0238 6.30729 11.0248C6.44016 11.0259 6.57149 11.0534 6.69362 11.1057C6.81574 11.158 6.92622 11.2341 7.01859 11.3296L10.556 14.8646L16.9255 8.50156C17.1131 8.31392 17.3677 8.20845 17.6331 8.20836C17.8986 8.20827 18.1532 8.31355 18.341 8.50106C18.5287 8.68857 18.6343 8.94294 18.6344 9.20821C18.6345 9.47348 18.5291 9.72792 18.3415 9.91556L11.2645 16.9876C11.1717 17.0804 11.0613 17.154 10.9399 17.2041C10.8185 17.2542 10.6884 17.2798 10.557 17.2796Z" fill="#2FAB73"/>
</svg>
