<svg width="35" height="35" viewBox="0 0 35 35" fill="none" xmlns="http://www.w3.org/2000/svg">
<path d="M17.5531 0.580566C8.26812 0.580566 0.741394 8.10207 0.741394 17.3806C0.741394 26.6591 8.26812 34.1806 17.5531 34.1806C26.838 34.1806 34.3647 26.6591 34.3647 17.3806C34.3647 8.10207 26.838 0.580566 17.5531 0.580566ZM24.3916 14.3426C24.3986 14.4861 24.4003 14.6296 24.4003 14.7696C24.4003 19.1446 21.0713 24.1863 14.9805 24.1863C13.1808 24.1893 11.4185 23.6728 9.90551 22.6988C10.1629 22.7303 10.4274 22.7426 10.6953 22.7426C12.2469 22.7426 13.6741 22.2158 14.8072 21.3268C14.1167 21.3133 13.4476 21.0848 12.8933 20.6732C12.3389 20.2617 11.9268 19.6875 11.7145 19.0308C12.2104 19.125 12.7212 19.1053 13.2083 18.9731C12.4589 18.8216 11.7849 18.4158 11.3007 17.8245C10.8165 17.2331 10.5519 16.4926 10.5517 15.7286V15.6883C10.9983 15.9351 11.5096 16.0856 12.0525 16.1031C11.3499 15.6357 10.8525 14.9177 10.6621 14.0961C10.4717 13.2744 10.6026 12.411 11.028 11.6826C11.8598 12.7046 12.897 13.5406 14.0726 14.1366C15.2482 14.7326 16.536 15.0752 17.8525 15.1423C17.6851 14.4324 17.7572 13.687 18.0574 13.0222C18.3577 12.3574 18.8693 11.8103 19.5128 11.466C20.1563 11.1218 20.8956 10.9996 21.6157 11.1185C22.3358 11.2374 22.9965 11.5907 23.4949 12.1236C24.236 11.9771 24.9467 11.7054 25.5964 11.3203C25.3494 12.0871 24.8323 12.7381 24.1411 13.1526C24.7976 13.0736 25.4386 12.8972 26.043 12.6293C25.599 13.2941 25.0397 13.8743 24.3916 14.3426Z" fill="white"/>
</svg>
